<svg width="320" height="60" viewBox="0 0 320 60" fill="none" xmlns="http://www.w3.org/2000/svg">
<g clip-path="url(#clip0_5354_47772)">
<path d="M48.9137 27.8855C46.6269 27.8885 44.4021 28.6301 42.5708 29.9998C42.5708 26.2363 41.4548 22.5573 39.3639 19.4281C37.273 16.2988 34.3012 13.8599 30.8242 12.4197C27.3472 10.9794 23.5211 10.6026 19.83 11.3368C16.1388 12.071 12.7482 13.8833 10.087 16.5445C7.42585 19.2057 5.61353 22.5963 4.87931 26.2875C4.14509 29.9787 4.52192 33.8047 5.96214 37.2817C7.40238 40.7587 9.84129 43.7304 12.9706 45.8214C16.0998 47.9124 19.7788 49.0283 23.5422 49.0283H48.9137C51.7172 49.0283 54.4062 47.9145 56.3889 45.9322C58.3713 43.9494 59.4851 41.2606 59.4851 38.4569C59.4851 35.6532 58.3713 32.9643 56.3889 30.9818C54.4062 28.9992 51.7172 27.8855 48.9137 27.8855Z" stroke="#D23F01" stroke-width="4" stroke-linecap="round" stroke-linejoin="round"/>
<path d="M70.26 34.4C70.26 31.928 70.812 29.72 71.916 27.776C73.044 25.808 74.568 24.284 76.488 23.204C78.432 22.1 80.604 21.548 83.004 21.548C85.812 21.548 88.272 22.268 90.384 23.708C92.496 25.148 93.972 27.14 94.812 29.684H89.016C88.44 28.484 87.624 27.584 86.568 26.984C85.536 26.384 84.336 26.084 82.968 26.084C81.504 26.084 80.196 26.432 79.044 27.128C77.916 27.8 77.028 28.76 76.38 30.008C75.756 31.256 75.444 32.72 75.444 34.4C75.444 36.056 75.756 37.52 76.38 38.792C77.028 40.04 77.916 41.012 79.044 41.708C80.196 42.38 81.504 42.716 82.968 42.716C84.336 42.716 85.536 42.416 86.568 41.816C87.624 41.192 88.44 40.28 89.016 39.08H94.812C93.972 41.648 92.496 43.652 90.384 45.092C88.296 46.508 85.836 47.216 83.004 47.216C80.604 47.216 78.432 46.676 76.488 45.596C74.568 44.492 73.044 42.968 71.916 41.024C70.812 39.08 70.26 36.872 70.26 34.4ZM104.157 20.36V47H99.1168V20.36H104.157ZM117.992 47.324C116.072 47.324 114.344 46.904 112.808 46.064C111.272 45.2 110.06 43.988 109.172 42.428C108.308 40.868 107.876 39.068 107.876 37.028C107.876 34.988 108.32 33.188 109.208 31.628C110.12 30.068 111.356 28.868 112.916 28.028C114.476 27.164 116.216 26.732 118.136 26.732C120.056 26.732 121.796 27.164 123.356 28.028C124.916 28.868 126.14 30.068 127.028 31.628C127.94 33.188 128.396 34.988 128.396 37.028C128.396 39.068 127.928 40.868 126.992 42.428C126.08 43.988 124.832 45.2 123.248 46.064C121.688 46.904 119.936 47.324 117.992 47.324ZM117.992 42.932C118.904 42.932 119.756 42.716 120.548 42.284C121.364 41.828 122.012 41.156 122.492 40.268C122.972 39.38 123.212 38.3 123.212 37.028C123.212 35.132 122.708 33.68 121.7 32.672C120.716 31.64 119.504 31.124 118.064 31.124C116.624 31.124 115.412 31.64 114.428 32.672C113.468 33.68 112.988 35.132 112.988 37.028C112.988 38.924 113.456 40.388 114.392 41.42C115.352 42.428 116.552 42.932 117.992 42.932ZM150.921 27.056V47H145.845V44.48C145.197 45.344 144.345 46.028 143.289 46.532C142.257 47.012 141.129 47.252 139.905 47.252C138.345 47.252 136.965 46.928 135.765 46.28C134.565 45.608 133.617 44.636 132.921 43.364C132.249 42.068 131.913 40.532 131.913 38.756V27.056H136.953V38.036C136.953 39.62 137.349 40.844 138.141 41.708C138.933 42.548 140.013 42.968 141.381 42.968C142.773 42.968 143.865 42.548 144.657 41.708C145.449 40.844 145.845 39.62 145.845 38.036V27.056H150.921ZM154.598 36.956C154.598 34.94 154.994 33.152 155.786 31.592C156.602 30.032 157.706 28.832 159.098 27.992C160.49 27.152 162.038 26.732 163.742 26.732C165.038 26.732 166.274 27.02 167.45 27.596C168.626 28.148 169.562 28.892 170.258 29.828V20.36H175.37V47H170.258V44.048C169.634 45.032 168.758 45.824 167.63 46.424C166.502 47.024 165.194 47.324 163.706 47.324C162.026 47.324 160.49 46.892 159.098 46.028C157.706 45.164 156.602 43.952 155.786 42.392C154.994 40.808 154.598 38.996 154.598 36.956ZM170.294 37.028C170.294 35.804 170.054 34.76 169.574 33.896C169.094 33.008 168.446 32.336 167.63 31.88C166.814 31.4 165.938 31.16 165.002 31.16C164.066 31.16 163.202 31.388 162.41 31.844C161.618 32.3 160.97 32.972 160.466 33.86C159.986 34.724 159.746 35.756 159.746 36.956C159.746 38.156 159.986 39.212 160.466 40.124C160.97 41.012 161.618 41.696 162.41 42.176C163.226 42.656 164.09 42.896 165.002 42.896C165.938 42.896 166.814 42.668 167.63 42.212C168.446 41.732 169.094 41.06 169.574 40.196C170.054 39.308 170.294 38.252 170.294 37.028ZM191.957 47.252C189.605 47.252 187.445 46.7 185.477 45.596C183.509 44.492 181.949 42.968 180.797 41.024C179.645 39.056 179.069 36.836 179.069 34.364C179.069 31.916 179.645 29.72 180.797 27.776C181.949 25.808 183.509 24.272 185.477 23.168C187.445 22.064 189.605 21.512 191.957 21.512C194.333 21.512 196.493 22.064 198.437 23.168C200.405 24.272 201.953 25.808 203.081 27.776C204.233 29.72 204.809 31.916 204.809 34.364C204.809 36.836 204.233 39.056 203.081 41.024C201.953 42.968 200.405 44.492 198.437 45.596C196.469 46.7 194.309 47.252 191.957 47.252ZM191.957 42.752C193.469 42.752 194.801 42.416 195.953 41.744C197.105 41.048 198.005 40.064 198.653 38.792C199.301 37.52 199.625 36.044 199.625 34.364C199.625 32.684 199.301 31.22 198.653 29.972C198.005 28.7 197.105 27.728 195.953 27.056C194.801 26.384 193.469 26.048 191.957 26.048C190.445 26.048 189.101 26.384 187.925 27.056C186.773 27.728 185.873 28.7 185.225 29.972C184.577 31.22 184.253 32.684 184.253 34.364C184.253 36.044 184.577 37.52 185.225 38.792C185.873 40.064 186.773 41.048 187.925 41.744C189.101 42.416 190.445 42.752 191.957 42.752ZM213.598 30.152C214.246 29.096 215.086 28.268 216.118 27.668C217.174 27.068 218.374 26.768 219.718 26.768V32.06H218.386C216.802 32.06 215.602 32.432 214.786 33.176C213.994 33.92 213.598 35.216 213.598 37.064V47H208.558V27.056H213.598V30.152ZM221.817 36.956C221.817 34.94 222.213 33.152 223.005 31.592C223.821 30.032 224.913 28.832 226.281 27.992C227.673 27.152 229.221 26.732 230.925 26.732C232.413 26.732 233.709 27.032 234.813 27.632C235.941 28.232 236.841 28.988 237.513 29.9V27.056H242.589V47H237.513V44.084C236.865 45.02 235.965 45.8 234.813 46.424C233.685 47.024 232.377 47.324 230.889 47.324C229.209 47.324 227.673 46.892 226.281 46.028C224.913 45.164 223.821 43.952 223.005 42.392C222.213 40.808 221.817 38.996 221.817 36.956ZM237.513 37.028C237.513 35.804 237.273 34.76 236.793 33.896C236.313 33.008 235.665 32.336 234.849 31.88C234.033 31.4 233.157 31.16 232.221 31.16C231.285 31.16 230.421 31.388 229.629 31.844C228.837 32.3 228.189 32.972 227.685 33.86C227.205 34.724 226.965 35.756 226.965 36.956C226.965 38.156 227.205 39.212 227.685 40.124C228.189 41.012 228.837 41.696 229.629 42.176C230.445 42.656 231.309 42.896 232.221 42.896C233.157 42.896 234.033 42.668 234.849 42.212C235.665 41.732 236.313 41.06 236.793 40.196C237.273 39.308 237.513 38.252 237.513 37.028ZM258.563 26.768C260.939 26.768 262.859 27.524 264.323 29.036C265.787 30.524 266.519 32.612 266.519 35.3V47H261.479V35.984C261.479 34.4 261.083 33.188 260.291 32.348C259.499 31.484 258.419 31.052 257.051 31.052C255.659 31.052 254.555 31.484 253.739 32.348C252.947 33.188 252.551 34.4 252.551 35.984V47H247.511V27.056H252.551V29.54C253.223 28.676 254.075 28.004 255.107 27.524C256.163 27.02 257.315 26.768 258.563 26.768ZM279.124 26.732C280.612 26.732 281.92 27.032 283.048 27.632C284.176 28.208 285.064 28.964 285.712 29.9V27.056H290.788V47.144C290.788 48.992 290.416 50.636 289.672 52.076C288.928 53.54 287.812 54.692 286.324 55.532C284.836 56.396 283.036 56.828 280.924 56.828C278.092 56.828 275.764 56.168 273.94 54.848C272.14 53.528 271.12 51.728 270.88 49.448H275.884C276.148 50.36 276.712 51.08 277.576 51.608C278.464 52.16 279.532 52.436 280.78 52.436C282.244 52.436 283.432 51.992 284.344 51.104C285.256 50.24 285.712 48.92 285.712 47.144V44.048C285.064 44.984 284.164 45.764 283.012 46.388C281.884 47.012 280.588 47.324 279.124 47.324C277.444 47.324 275.908 46.892 274.516 46.028C273.124 45.164 272.02 43.952 271.204 42.392C270.412 40.808 270.016 38.996 270.016 36.956C270.016 34.94 270.412 33.152 271.204 31.592C272.02 30.032 273.112 28.832 274.48 27.992C275.872 27.152 277.42 26.732 279.124 26.732ZM285.712 37.028C285.712 35.804 285.472 34.76 284.992 33.896C284.512 33.008 283.864 32.336 283.048 31.88C282.232 31.4 281.356 31.16 280.42 31.16C279.484 31.16 278.62 31.388 277.828 31.844C277.036 32.3 276.388 32.972 275.884 33.86C275.404 34.724 275.164 35.756 275.164 36.956C275.164 38.156 275.404 39.212 275.884 40.124C276.388 41.012 277.036 41.696 277.828 42.176C278.644 42.656 279.508 42.896 280.42 42.896C281.356 42.896 282.232 42.668 283.048 42.212C283.864 41.732 284.512 41.06 284.992 40.196C285.472 39.308 285.712 38.252 285.712 37.028ZM314.251 36.596C314.251 37.316 314.203 37.964 314.107 38.54H299.527C299.647 39.98 300.151 41.108 301.039 41.924C301.927 42.74 303.019 43.148 304.315 43.148C306.187 43.148 307.519 42.344 308.311 40.736H313.747C313.171 42.656 312.067 44.24 310.435 45.488C308.803 46.712 306.799 47.324 304.423 47.324C302.503 47.324 300.775 46.904 299.239 46.064C297.727 45.2 296.539 43.988 295.675 42.428C294.835 40.868 294.415 39.068 294.415 37.028C294.415 34.964 294.835 33.152 295.675 31.592C296.515 30.032 297.691 28.832 299.203 27.992C300.715 27.152 302.455 26.732 304.423 26.732C306.319 26.732 308.011 27.14 309.499 27.956C311.011 28.772 312.175 29.936 312.991 31.448C313.831 32.936 314.251 34.652 314.251 36.596ZM309.031 35.156C309.007 33.86 308.539 32.828 307.627 32.06C306.715 31.268 305.599 30.872 304.279 30.872C303.031 30.872 301.975 31.256 301.111 32.024C300.271 32.768 299.755 33.812 299.563 35.156H309.031Z" fill="#0D0C22"/>
</g>
<defs>
<clipPath id="clip0_5354_47772">
<rect width="320" height="60" fill="white"/>
</clipPath>
</defs>
</svg>
