<svg width="320" height="60" viewBox="0 0 320 60" fill="none" xmlns="http://www.w3.org/2000/svg">
<g clip-path="url(#clip0_5354_47762)">
<path d="M48.9137 27.8855C46.6269 27.8885 44.4021 28.6301 42.5708 29.9998C42.5708 26.2363 41.4548 22.5573 39.3639 19.4281C37.273 16.2988 34.3012 13.8599 30.8242 12.4197C27.3472 10.9794 23.5211 10.6026 19.83 11.3368C16.1388 12.071 12.7482 13.8833 10.087 16.5445C7.42585 19.2057 5.61353 22.5963 4.87931 26.2875C4.14509 29.9787 4.52192 33.8047 5.96214 37.2817C7.40238 40.7587 9.84129 43.7304 12.9706 45.8214C16.0998 47.9124 19.7788 49.0283 23.5422 49.0283H48.9137C51.7172 49.0283 54.4062 47.9145 56.3889 45.9322C58.3713 43.9494 59.4851 41.2606 59.4851 38.4569C59.4851 35.6532 58.3713 32.9643 56.3889 30.9818C54.4062 28.9992 51.7172 27.8855 48.9137 27.8855Z" stroke="#0012B6" stroke-width="4" stroke-linecap="round" stroke-linejoin="round"/>
<path d="M73.33 34.7C73.33 32.0907 73.9127 29.76 75.078 27.708C76.2687 25.6307 77.8773 24.022 79.904 22.882C81.956 21.7167 84.2487 21.134 86.782 21.134C89.746 21.134 92.3427 21.894 94.572 23.414C96.8013 24.934 98.3593 27.0367 99.246 29.722H93.128C92.52 28.4553 91.6587 27.5053 90.544 26.872C89.4547 26.2387 88.188 25.922 86.744 25.922C85.1987 25.922 83.818 26.2893 82.602 27.024C81.4113 27.7333 80.474 28.7467 79.79 30.064C79.1313 31.3813 78.802 32.9267 78.802 34.7C78.802 36.448 79.1313 37.9933 79.79 39.336C80.474 40.6533 81.4113 41.6793 82.602 42.414C83.818 43.1233 85.1987 43.478 86.744 43.478C88.188 43.478 89.4547 43.1613 90.544 42.528C91.6587 41.8693 92.52 40.9067 93.128 39.64H99.246C98.3593 42.3507 96.8013 44.466 94.572 45.986C92.368 47.4807 89.7713 48.228 86.782 48.228C84.2487 48.228 81.956 47.658 79.904 46.518C77.8773 45.3527 76.2687 43.744 75.078 41.692C73.9127 39.64 73.33 37.3093 73.33 34.7ZM109.11 19.88V48H103.79V19.88H109.11ZM123.714 48.342C121.687 48.342 119.863 47.8987 118.242 47.012C116.621 46.1 115.341 44.8207 114.404 43.174C113.492 41.5273 113.036 39.6273 113.036 37.474C113.036 35.3207 113.505 33.4207 114.442 31.774C115.405 30.1273 116.709 28.8607 118.356 27.974C120.003 27.062 121.839 26.606 123.866 26.606C125.893 26.606 127.729 27.062 129.376 27.974C131.023 28.8607 132.315 30.1273 133.252 31.774C134.215 33.4207 134.696 35.3207 134.696 37.474C134.696 39.6273 134.202 41.5273 133.214 43.174C132.251 44.8207 130.934 46.1 129.262 47.012C127.615 47.8987 125.766 48.342 123.714 48.342ZM123.714 43.706C124.677 43.706 125.576 43.478 126.412 43.022C127.273 42.5407 127.957 41.8313 128.464 40.894C128.971 39.9567 129.224 38.8167 129.224 37.474C129.224 35.4727 128.692 33.94 127.628 32.876C126.589 31.7867 125.31 31.242 123.79 31.242C122.27 31.242 120.991 31.7867 119.952 32.876C118.939 33.94 118.432 35.4727 118.432 37.474C118.432 39.4753 118.926 41.0207 119.914 42.11C120.927 43.174 122.194 43.706 123.714 43.706ZM158.473 26.948V48H153.115V45.34C152.431 46.252 151.531 46.974 150.417 47.506C149.327 48.0127 148.137 48.266 146.845 48.266C145.198 48.266 143.741 47.924 142.475 47.24C141.208 46.5307 140.207 45.5047 139.473 44.162C138.763 42.794 138.409 41.1727 138.409 39.298V26.948H143.729V38.538C143.729 40.21 144.147 41.502 144.983 42.414C145.819 43.3007 146.959 43.744 148.403 43.744C149.872 43.744 151.025 43.3007 151.861 42.414C152.697 41.502 153.115 40.21 153.115 38.538V26.948H158.473ZM162.354 37.398C162.354 35.27 162.772 33.3827 163.608 31.736C164.469 30.0893 165.634 28.8227 167.104 27.936C168.573 27.0493 170.207 26.606 172.006 26.606C173.374 26.606 174.678 26.91 175.92 27.518C177.161 28.1007 178.149 28.886 178.884 29.874V19.88H184.28V48H178.884V44.884C178.225 45.9227 177.3 46.7587 176.11 47.392C174.919 48.0253 173.538 48.342 171.968 48.342C170.194 48.342 168.573 47.886 167.104 46.974C165.634 46.062 164.469 44.7827 163.608 43.136C162.772 41.464 162.354 39.5513 162.354 37.398ZM178.922 37.474C178.922 36.182 178.668 35.08 178.162 34.168C177.655 33.2307 176.971 32.5213 176.11 32.04C175.248 31.5333 174.324 31.28 173.336 31.28C172.348 31.28 171.436 31.5207 170.6 32.002C169.764 32.4833 169.08 33.1927 168.548 34.13C168.041 35.042 167.788 36.1313 167.788 37.398C167.788 38.6647 168.041 39.7793 168.548 40.742C169.08 41.6793 169.764 42.4013 170.6 42.908C171.461 43.4147 172.373 43.668 173.336 43.668C174.324 43.668 175.248 43.4273 176.11 42.946C176.971 42.4393 177.655 41.73 178.162 40.818C178.668 39.8807 178.922 38.766 178.922 37.474ZM204.524 34.396C206.018 34.6747 207.247 35.422 208.21 36.638C209.172 37.854 209.654 39.2473 209.654 40.818C209.654 42.2367 209.299 43.4907 208.59 44.58C207.906 45.644 206.905 46.48 205.588 47.088C204.27 47.696 202.712 48 200.914 48H189.476V21.476H200.42C202.218 21.476 203.764 21.7673 205.056 22.35C206.373 22.9327 207.361 23.7433 208.02 24.782C208.704 25.8207 209.046 26.9987 209.046 28.316C209.046 29.8613 208.628 31.1533 207.792 32.192C206.981 33.2307 205.892 33.9653 204.524 34.396ZM194.796 32.42H199.66C200.926 32.42 201.902 32.1413 202.586 31.584C203.27 31.0013 203.612 30.178 203.612 29.114C203.612 28.05 203.27 27.2267 202.586 26.644C201.902 26.0613 200.926 25.77 199.66 25.77H194.796V32.42ZM200.154 43.668C201.446 43.668 202.446 43.364 203.156 42.756C203.89 42.148 204.258 41.2867 204.258 40.172C204.258 39.032 203.878 38.1453 203.118 37.512C202.358 36.8533 201.332 36.524 200.04 36.524H194.796V43.668H200.154ZM219.213 19.88V48H213.893V19.88H219.213ZM244.344 26.948V48H238.986V45.34C238.302 46.252 237.402 46.974 236.288 47.506C235.198 48.0127 234.008 48.266 232.716 48.266C231.069 48.266 229.612 47.924 228.346 47.24C227.079 46.5307 226.078 45.5047 225.344 44.162C224.634 42.794 224.28 41.1727 224.28 39.298V26.948H229.6V38.538C229.6 40.21 230.018 41.502 230.854 42.414C231.69 43.3007 232.83 43.744 234.274 43.744C235.743 43.744 236.896 43.3007 237.732 42.414C238.568 41.502 238.986 40.21 238.986 38.538V26.948H244.344ZM269.163 37.018C269.163 37.778 269.112 38.462 269.011 39.07H253.621C253.747 40.59 254.279 41.7807 255.217 42.642C256.154 43.5033 257.307 43.934 258.675 43.934C260.651 43.934 262.057 43.0853 262.893 41.388H268.631C268.023 43.4147 266.857 45.0867 265.135 46.404C263.412 47.696 261.297 48.342 258.789 48.342C256.762 48.342 254.938 47.8987 253.317 47.012C251.721 46.1 250.467 44.8207 249.555 43.174C248.668 41.5273 248.225 39.6273 248.225 37.474C248.225 35.2953 248.668 33.3827 249.555 31.736C250.441 30.0893 251.683 28.8227 253.279 27.936C254.875 27.0493 256.711 26.606 258.789 26.606C260.79 26.606 262.576 27.0367 264.147 27.898C265.743 28.7593 266.971 29.988 267.833 31.584C268.719 33.1547 269.163 34.966 269.163 37.018ZM263.653 35.498C263.627 34.13 263.133 33.0407 262.171 32.23C261.208 31.394 260.03 30.976 258.637 30.976C257.319 30.976 256.205 31.3813 255.293 32.192C254.406 32.9773 253.861 34.0793 253.659 35.498H263.653Z" fill="#0D0C22"/>
</g>
<defs>
<clipPath id="clip0_5354_47762">
<rect width="320" height="60" fill="white"/>
</clipPath>
</defs>
</svg>
