<svg width="320" height="60" viewBox="0 0 320 60" fill="none" xmlns="http://www.w3.org/2000/svg">
<g clip-path="url(#clip0_5354_47767)">
<path d="M48.9137 27.8855C46.6269 27.8885 44.4021 28.6301 42.5708 29.9998C42.5708 26.2363 41.4548 22.5573 39.3639 19.4281C37.273 16.2988 34.3012 13.8599 30.8242 12.4197C27.3472 10.9794 23.5211 10.6026 19.83 11.3368C16.1388 12.071 12.7482 13.8833 10.087 16.5445C7.42585 19.2057 5.61353 22.5963 4.87931 26.2875C4.14509 29.9787 4.52192 33.8047 5.96214 37.2817C7.40238 40.7587 9.84129 43.7304 12.9706 45.8214C16.0998 47.9124 19.7788 49.0283 23.5422 49.0283H48.9137C51.7172 49.0283 54.4062 47.9145 56.3889 45.9322C58.3713 43.9494 59.4851 41.2606 59.4851 38.4569C59.4851 35.6532 58.3713 32.9643 56.3889 30.9818C54.4062 28.9992 51.7172 27.8855 48.9137 27.8855Z" stroke="#138C47" stroke-width="4" stroke-linecap="round" stroke-linejoin="round"/>
<path d="M73.33 34.7C73.33 32.0907 73.9127 29.76 75.078 27.708C76.2687 25.6307 77.8773 24.022 79.904 22.882C81.956 21.7167 84.2487 21.134 86.782 21.134C89.746 21.134 92.3427 21.894 94.572 23.414C96.8013 24.934 98.3593 27.0367 99.246 29.722H93.128C92.52 28.4553 91.6587 27.5053 90.544 26.872C89.4547 26.2387 88.188 25.922 86.744 25.922C85.1987 25.922 83.818 26.2893 82.602 27.024C81.4113 27.7333 80.474 28.7467 79.79 30.064C79.1313 31.3813 78.802 32.9267 78.802 34.7C78.802 36.448 79.1313 37.9933 79.79 39.336C80.474 40.6533 81.4113 41.6793 82.602 42.414C83.818 43.1233 85.1987 43.478 86.744 43.478C88.188 43.478 89.4547 43.1613 90.544 42.528C91.6587 41.8693 92.52 40.9067 93.128 39.64H99.246C98.3593 42.3507 96.8013 44.466 94.572 45.986C92.368 47.4807 89.7713 48.228 86.782 48.228C84.2487 48.228 81.956 47.658 79.904 46.518C77.8773 45.3527 76.2687 43.744 75.078 41.692C73.9127 39.64 73.33 37.3093 73.33 34.7ZM109.11 19.88V48H103.79V19.88H109.11ZM123.714 48.342C121.687 48.342 119.863 47.8987 118.242 47.012C116.621 46.1 115.341 44.8207 114.404 43.174C113.492 41.5273 113.036 39.6273 113.036 37.474C113.036 35.3207 113.505 33.4207 114.442 31.774C115.405 30.1273 116.709 28.8607 118.356 27.974C120.003 27.062 121.839 26.606 123.866 26.606C125.893 26.606 127.729 27.062 129.376 27.974C131.023 28.8607 132.315 30.1273 133.252 31.774C134.215 33.4207 134.696 35.3207 134.696 37.474C134.696 39.6273 134.202 41.5273 133.214 43.174C132.251 44.8207 130.934 46.1 129.262 47.012C127.615 47.8987 125.766 48.342 123.714 48.342ZM123.714 43.706C124.677 43.706 125.576 43.478 126.412 43.022C127.273 42.5407 127.957 41.8313 128.464 40.894C128.971 39.9567 129.224 38.8167 129.224 37.474C129.224 35.4727 128.692 33.94 127.628 32.876C126.589 31.7867 125.31 31.242 123.79 31.242C122.27 31.242 120.991 31.7867 119.952 32.876C118.939 33.94 118.432 35.4727 118.432 37.474C118.432 39.4753 118.926 41.0207 119.914 42.11C120.927 43.174 122.194 43.706 123.714 43.706ZM158.473 26.948V48H153.115V45.34C152.431 46.252 151.531 46.974 150.417 47.506C149.327 48.0127 148.137 48.266 146.845 48.266C145.198 48.266 143.741 47.924 142.475 47.24C141.208 46.5307 140.207 45.5047 139.473 44.162C138.763 42.794 138.409 41.1727 138.409 39.298V26.948H143.729V38.538C143.729 40.21 144.147 41.502 144.983 42.414C145.819 43.3007 146.959 43.744 148.403 43.744C149.872 43.744 151.025 43.3007 151.861 42.414C152.697 41.502 153.115 40.21 153.115 38.538V26.948H158.473ZM162.354 37.398C162.354 35.27 162.772 33.3827 163.608 31.736C164.469 30.0893 165.634 28.8227 167.104 27.936C168.573 27.0493 170.207 26.606 172.006 26.606C173.374 26.606 174.678 26.91 175.92 27.518C177.161 28.1007 178.149 28.886 178.884 29.874V19.88H184.28V48H178.884V44.884C178.225 45.9227 177.3 46.7587 176.11 47.392C174.919 48.0253 173.538 48.342 171.968 48.342C170.194 48.342 168.573 47.886 167.104 46.974C165.634 46.062 164.469 44.7827 163.608 43.136C162.772 41.464 162.354 39.5513 162.354 37.398ZM178.922 37.474C178.922 36.182 178.668 35.08 178.162 34.168C177.655 33.2307 176.971 32.5213 176.11 32.04C175.248 31.5333 174.324 31.28 173.336 31.28C172.348 31.28 171.436 31.5207 170.6 32.002C169.764 32.4833 169.08 33.1927 168.548 34.13C168.041 35.042 167.788 36.1313 167.788 37.398C167.788 38.6647 168.041 39.7793 168.548 40.742C169.08 41.6793 169.764 42.4013 170.6 42.908C171.461 43.4147 172.373 43.668 173.336 43.668C174.324 43.668 175.248 43.4273 176.11 42.946C176.971 42.4393 177.655 41.73 178.162 40.818C178.668 39.8807 178.922 38.766 178.922 37.474ZM207.944 29.456C207.336 28.3413 206.5 27.4927 205.436 26.91C204.372 26.3273 203.13 26.036 201.712 26.036C200.141 26.036 198.748 26.3907 197.532 27.1C196.316 27.8093 195.366 28.8227 194.682 30.14C193.998 31.4573 193.656 32.9773 193.656 34.7C193.656 36.4733 193.998 38.0187 194.682 39.336C195.391 40.6533 196.366 41.6667 197.608 42.376C198.849 43.0853 200.293 43.44 201.94 43.44C203.966 43.44 205.626 42.908 206.918 41.844C208.21 40.7547 209.058 39.2473 209.464 37.322H200.344V33.256H214.708V37.892C214.353 39.7413 213.593 41.4513 212.428 43.022C211.262 44.5927 209.755 45.8593 207.906 46.822C206.082 47.7593 204.03 48.228 201.75 48.228C199.191 48.228 196.873 47.658 194.796 46.518C192.744 45.3527 191.122 43.744 189.932 41.692C188.766 39.64 188.184 37.3093 188.184 34.7C188.184 32.0907 188.766 29.76 189.932 27.708C191.122 25.6307 192.744 24.022 194.796 22.882C196.873 21.7167 199.178 21.134 201.712 21.134C204.701 21.134 207.298 21.8687 209.502 23.338C211.706 24.782 213.226 26.8213 214.062 29.456H207.944ZM223.963 30.216C224.647 29.1013 225.534 28.2273 226.623 27.594C227.738 26.9607 229.005 26.644 230.423 26.644V32.23H229.017C227.345 32.23 226.079 32.6227 225.217 33.408C224.381 34.1933 223.963 35.5613 223.963 37.512V48H218.643V26.948H223.963V30.216ZM253.577 37.018C253.577 37.778 253.526 38.462 253.425 39.07H238.035C238.161 40.59 238.693 41.7807 239.631 42.642C240.568 43.5033 241.721 43.934 243.089 43.934C245.065 43.934 246.471 43.0853 247.307 41.388H253.045C252.437 43.4147 251.271 45.0867 249.549 46.404C247.826 47.696 245.711 48.342 243.203 48.342C241.176 48.342 239.352 47.8987 237.731 47.012C236.135 46.1 234.881 44.8207 233.969 43.174C233.082 41.5273 232.639 39.6273 232.639 37.474C232.639 35.2953 233.082 33.3827 233.969 31.736C234.855 30.0893 236.097 28.8227 237.693 27.936C239.289 27.0493 241.125 26.606 243.203 26.606C245.204 26.606 246.99 27.0367 248.561 27.898C250.157 28.7593 251.385 29.988 252.247 31.584C253.133 33.1547 253.577 34.966 253.577 37.018ZM248.067 35.498C248.041 34.13 247.547 33.0407 246.585 32.23C245.622 31.394 244.444 30.976 243.051 30.976C241.733 30.976 240.619 31.3813 239.707 32.192C238.82 32.9773 238.275 34.0793 238.073 35.498H248.067ZM277.03 37.018C277.03 37.778 276.979 38.462 276.878 39.07H261.488C261.615 40.59 262.147 41.7807 263.084 42.642C264.021 43.5033 265.174 43.934 266.542 43.934C268.518 43.934 269.924 43.0853 270.76 41.388H276.498C275.89 43.4147 274.725 45.0867 273.002 46.404C271.279 47.696 269.164 48.342 266.656 48.342C264.629 48.342 262.805 47.8987 261.184 47.012C259.588 46.1 258.334 44.8207 257.422 43.174C256.535 41.5273 256.092 39.6273 256.092 37.474C256.092 35.2953 256.535 33.3827 257.422 31.736C258.309 30.0893 259.55 28.8227 261.146 27.936C262.742 27.0493 264.579 26.606 266.656 26.606C268.657 26.606 270.443 27.0367 272.014 27.898C273.61 28.7593 274.839 29.988 275.7 31.584C276.587 33.1547 277.03 34.966 277.03 37.018ZM271.52 35.498C271.495 34.13 271.001 33.0407 270.038 32.23C269.075 31.394 267.897 30.976 266.504 30.976C265.187 30.976 264.072 31.3813 263.16 32.192C262.273 32.9773 261.729 34.0793 261.526 35.498H271.52ZM292.579 26.644C295.087 26.644 297.114 27.442 298.659 29.038C300.204 30.6087 300.977 32.8127 300.977 35.65V48H295.657V36.372C295.657 34.7 295.239 33.4207 294.403 32.534C293.567 31.622 292.427 31.166 290.983 31.166C289.514 31.166 288.348 31.622 287.487 32.534C286.651 33.4207 286.233 34.7 286.233 36.372V48H280.913V26.948H286.233V29.57C286.942 28.658 287.842 27.9487 288.931 27.442C290.046 26.91 291.262 26.644 292.579 26.644Z" fill="#0D0C22"/>
</g>
<defs>
<clipPath id="clip0_5354_47767">
<rect width="320" height="60" fill="white"/>
</clipPath>
</defs>
</svg>
