<svg width="320" height="60" viewBox="0 0 320 60" fill="none" xmlns="http://www.w3.org/2000/svg">
<g clip-path="url(#clip0_5354_47757)">
<path d="M48.9137 27.8855C46.6269 27.8885 44.4021 28.6301 42.5708 29.9998C42.5708 26.2363 41.4548 22.5573 39.3639 19.4281C37.273 16.2988 34.3012 13.8599 30.8242 12.4197C27.3472 10.9794 23.5211 10.6026 19.83 11.3368C16.1388 12.071 12.7482 13.8833 10.087 16.5445C7.42585 19.2057 5.61353 22.5963 4.87931 26.2875C4.14509 29.9787 4.52192 33.8047 5.96214 37.2817C7.40238 40.7587 9.84129 43.7304 12.9706 45.8214C16.0998 47.9124 19.7788 49.0283 23.5422 49.0283H48.9137C51.7172 49.0283 54.4062 47.9145 56.3889 45.9322C58.3713 43.9494 59.4851 41.2606 59.4851 38.4569C59.4851 35.6532 58.3713 32.9643 56.3889 30.9818C54.4062 28.9992 51.7172 27.8855 48.9137 27.8855Z" stroke="#0D0C22" stroke-width="4" stroke-linecap="round" stroke-linejoin="round"/>
<path d="M73.33 33.7C73.33 31.0907 73.9127 28.76 75.078 26.708C76.2687 24.6307 77.8773 23.022 79.904 21.882C81.956 20.7167 84.2487 20.134 86.782 20.134C89.746 20.134 92.3427 20.894 94.572 22.414C96.8013 23.934 98.3593 26.0367 99.246 28.722H93.128C92.52 27.4553 91.6587 26.5053 90.544 25.872C89.4547 25.2387 88.188 24.922 86.744 24.922C85.1987 24.922 83.818 25.2893 82.602 26.024C81.4113 26.7333 80.474 27.7467 79.79 29.064C79.1313 30.3813 78.802 31.9267 78.802 33.7C78.802 35.448 79.1313 36.9933 79.79 38.336C80.474 39.6533 81.4113 40.6793 82.602 41.414C83.818 42.1233 85.1987 42.478 86.744 42.478C88.188 42.478 89.4547 42.1613 90.544 41.528C91.6587 40.8693 92.52 39.9067 93.128 38.64H99.246C98.3593 41.3507 96.8013 43.466 94.572 44.986C92.368 46.4807 89.7713 47.228 86.782 47.228C84.2487 47.228 81.956 46.658 79.904 45.518C77.8773 44.3527 76.2687 42.744 75.078 40.692C73.9127 38.64 73.33 36.3093 73.33 33.7ZM109.11 18.88V47H103.79V18.88H109.11ZM123.714 47.342C121.687 47.342 119.863 46.8987 118.242 46.012C116.621 45.1 115.341 43.8207 114.404 42.174C113.492 40.5273 113.036 38.6273 113.036 36.474C113.036 34.3207 113.505 32.4207 114.442 30.774C115.405 29.1273 116.709 27.8607 118.356 26.974C120.003 26.062 121.839 25.606 123.866 25.606C125.893 25.606 127.729 26.062 129.376 26.974C131.023 27.8607 132.315 29.1273 133.252 30.774C134.215 32.4207 134.696 34.3207 134.696 36.474C134.696 38.6273 134.202 40.5273 133.214 42.174C132.251 43.8207 130.934 45.1 129.262 46.012C127.615 46.8987 125.766 47.342 123.714 47.342ZM123.714 42.706C124.677 42.706 125.576 42.478 126.412 42.022C127.273 41.5407 127.957 40.8313 128.464 39.894C128.971 38.9567 129.224 37.8167 129.224 36.474C129.224 34.4727 128.692 32.94 127.628 31.876C126.589 30.7867 125.31 30.242 123.79 30.242C122.27 30.242 120.991 30.7867 119.952 31.876C118.939 32.94 118.432 34.4727 118.432 36.474C118.432 38.4753 118.926 40.0207 119.914 41.11C120.927 42.174 122.194 42.706 123.714 42.706ZM158.473 25.948V47H153.115V44.34C152.431 45.252 151.531 45.974 150.417 46.506C149.327 47.0127 148.137 47.266 146.845 47.266C145.198 47.266 143.741 46.924 142.475 46.24C141.208 45.5307 140.207 44.5047 139.473 43.162C138.763 41.794 138.409 40.1727 138.409 38.298V25.948H143.729V37.538C143.729 39.21 144.147 40.502 144.983 41.414C145.819 42.3007 146.959 42.744 148.403 42.744C149.872 42.744 151.025 42.3007 151.861 41.414C152.697 40.502 153.115 39.21 153.115 37.538V25.948H158.473ZM162.354 36.398C162.354 34.27 162.772 32.3827 163.608 30.736C164.469 29.0893 165.634 27.8227 167.104 26.936C168.573 26.0493 170.207 25.606 172.006 25.606C173.374 25.606 174.678 25.91 175.92 26.518C177.161 27.1007 178.149 27.886 178.884 28.874V18.88H184.28V47H178.884V43.884C178.225 44.9227 177.3 45.7587 176.11 46.392C174.919 47.0253 173.538 47.342 171.968 47.342C170.194 47.342 168.573 46.886 167.104 45.974C165.634 45.062 164.469 43.7827 163.608 42.136C162.772 40.464 162.354 38.5513 162.354 36.398ZM178.922 36.474C178.922 35.182 178.668 34.08 178.162 33.168C177.655 32.2307 176.971 31.5213 176.11 31.04C175.248 30.5333 174.324 30.28 173.336 30.28C172.348 30.28 171.436 30.5207 170.6 31.002C169.764 31.4833 169.08 32.1927 168.548 33.13C168.041 34.042 167.788 35.1313 167.788 36.398C167.788 37.6647 168.041 38.7793 168.548 39.742C169.08 40.6793 169.764 41.4013 170.6 41.908C171.461 42.4147 172.373 42.668 173.336 42.668C174.324 42.668 175.248 42.4273 176.11 41.946C176.971 41.4393 177.655 40.73 178.162 39.818C178.668 38.8807 178.922 37.766 178.922 36.474ZM198.634 47.266C196.784 47.266 195.112 46.9493 193.618 46.316C192.148 45.6827 190.983 44.7707 190.122 43.58C189.26 42.3893 188.817 40.9833 188.792 39.362H194.492C194.568 40.4513 194.948 41.3127 195.632 41.946C196.341 42.5793 197.304 42.896 198.52 42.896C199.761 42.896 200.736 42.6047 201.446 42.022C202.155 41.414 202.51 40.6287 202.51 39.666C202.51 38.8807 202.269 38.2347 201.788 37.728C201.306 37.2213 200.698 36.8287 199.964 36.55C199.254 36.246 198.266 35.9167 197 35.562C195.277 35.0553 193.871 34.5613 192.782 34.08C191.718 33.5733 190.793 32.826 190.008 31.838C189.248 30.8247 188.868 29.482 188.868 27.81C188.868 26.2393 189.26 24.8713 190.046 23.706C190.831 22.5407 191.933 21.654 193.352 21.046C194.77 20.4127 196.392 20.096 198.216 20.096C200.952 20.096 203.168 20.7673 204.866 22.11C206.588 23.4273 207.538 25.2767 207.716 27.658H201.864C201.813 26.746 201.42 25.9987 200.686 25.416C199.976 24.808 199.026 24.504 197.836 24.504C196.797 24.504 195.961 24.77 195.328 25.302C194.72 25.834 194.416 26.6067 194.416 27.62C194.416 28.3293 194.644 28.9247 195.1 29.406C195.581 29.862 196.164 30.242 196.848 30.546C197.557 30.8247 198.545 31.154 199.812 31.534C201.534 32.0407 202.94 32.5473 204.03 33.054C205.119 33.5607 206.056 34.3207 206.842 35.334C207.627 36.3473 208.02 37.6773 208.02 39.324C208.02 40.7427 207.652 42.06 206.918 43.276C206.183 44.492 205.106 45.4673 203.688 46.202C202.269 46.9113 200.584 47.266 198.634 47.266ZM211.264 36.398C211.264 34.27 211.682 32.3827 212.518 30.736C213.379 29.0893 214.532 27.8227 215.976 26.936C217.445 26.0493 219.079 25.606 220.878 25.606C222.448 25.606 223.816 25.9227 224.982 26.556C226.172 27.1893 227.122 27.9873 227.832 28.95V25.948H233.19V47H227.832V43.922C227.148 44.91 226.198 45.7333 224.982 46.392C223.791 47.0253 222.41 47.342 220.84 47.342C219.066 47.342 217.445 46.886 215.976 45.974C214.532 45.062 213.379 43.7827 212.518 42.136C211.682 40.464 211.264 38.5513 211.264 36.398ZM227.832 36.474C227.832 35.182 227.578 34.08 227.072 33.168C226.565 32.2307 225.881 31.5213 225.02 31.04C224.158 30.5333 223.234 30.28 222.246 30.28C221.258 30.28 220.346 30.5207 219.51 31.002C218.674 31.4833 217.99 32.1927 217.458 33.13C216.951 34.042 216.698 35.1313 216.698 36.398C216.698 37.6647 216.951 38.7793 217.458 39.742C217.99 40.6793 218.674 41.4013 219.51 41.908C220.371 42.4147 221.283 42.668 222.246 42.668C223.234 42.668 224.158 42.4273 225.02 41.946C225.881 41.4393 226.565 40.73 227.072 39.818C227.578 38.8807 227.832 37.766 227.832 36.474ZM247.164 42.098L252.484 25.948H258.146L250.356 47H243.896L236.144 25.948H241.844L247.164 42.098ZM280.704 36.018C280.704 36.778 280.653 37.462 280.552 38.07H265.162C265.288 39.59 265.82 40.7807 266.758 41.642C267.695 42.5033 268.848 42.934 270.216 42.934C272.192 42.934 273.598 42.0853 274.434 40.388H280.172C279.564 42.4147 278.398 44.0867 276.676 45.404C274.953 46.696 272.838 47.342 270.33 47.342C268.303 47.342 266.479 46.8987 264.858 46.012C263.262 45.1 262.008 43.8207 261.096 42.174C260.209 40.5273 259.766 38.6273 259.766 36.474C259.766 34.2953 260.209 32.3827 261.096 30.736C261.982 29.0893 263.224 27.8227 264.82 26.936C266.416 26.0493 268.252 25.606 270.33 25.606C272.331 25.606 274.117 26.0367 275.688 26.898C277.284 27.7593 278.512 28.988 279.374 30.584C280.26 32.1547 280.704 33.966 280.704 36.018ZM275.194 34.498C275.168 33.13 274.674 32.0407 273.712 31.23C272.749 30.394 271.571 29.976 270.178 29.976C268.86 29.976 267.746 30.3813 266.834 31.192C265.947 31.9773 265.402 33.0793 265.2 34.498H275.194Z" fill="#0D0C22"/>
</g>
<defs>
<clipPath id="clip0_5354_47757">
<rect width="320" height="60" fill="white"/>
</clipPath>
</defs>
</svg>
